<svg width="17" height="17" viewBox="0 0 17 17" fill="none" xmlns="http://www.w3.org/2000/svg">
<path d="M15.5781 1.1815C14.8193 0.471518 13.8383 0.0550597 12.8072 0.0050845C11.7761 -0.0448907 10.7605 0.274804 9.93836 0.908162C9.11624 1.54152 8.54001 2.44815 8.31062 3.46922C8.08123 4.4903 8.2133 5.5607 8.68371 6.4929L5.42719 9.8009L4.35199 8.70857C4.32023 8.67639 4.27718 8.65832 4.23229 8.65832C4.1874 8.65832 4.14435 8.67639 4.11259 8.70857L2.91749 9.92253C2.90175 9.93843 2.88927 9.95732 2.88074 9.97813C2.87222 9.99893 2.86783 10.0212 2.86783 10.0438C2.86783 10.0663 2.87222 10.0886 2.88074 10.1094C2.88927 10.1302 2.90175 10.1491 2.91749 10.165L3.99308 11.2577L2.79799 12.4713L1.483 11.1373C1.45124 11.1051 1.40818 11.087 1.3633 11.087C1.31841 11.087 1.27536 11.1051 1.24359 11.1373L0.0496617 12.3513C0.0339218 12.3671 0.021432 12.386 0.0129095 12.4068C0.0043871 12.4277 0 12.45 0 12.4725C0 12.495 0.0043871 12.5173 0.0129095 12.5381C0.021432 12.5589 0.0339218 12.5778 0.0496617 12.5937L1.36465 13.9278L0.702128 14.6007C0.464475 14.8299 0.313197 15.1361 0.274428 15.4664C0.23566 15.7967 0.311836 16.1304 0.489796 16.4098C0.602727 16.5749 0.749977 16.7128 0.92116 16.8138C1.09234 16.9148 1.28329 16.9765 1.48053 16.9945C1.67777 17.0125 1.8765 16.9863 2.0627 16.9179C2.24891 16.8495 2.41805 16.7405 2.55819 16.5986L10.5951 8.43745C11.542 8.92997 12.6328 9.05753 13.6654 8.79646C14.6979 8.5354 15.6021 7.90343 16.2105 7.01768C16.8188 6.13194 17.0899 5.05249 16.9737 3.97942C16.8574 2.90635 16.3616 1.91243 15.5781 1.18189V1.1815ZM14.3196 5.4657C14.1368 5.76347 13.8822 6.0091 13.5799 6.1794C13.2776 6.3497 12.9375 6.43907 12.5917 6.43907C12.2459 6.43907 11.9059 6.3497 11.6035 6.1794C11.3012 6.0091 11.0467 5.76347 10.8639 5.4657C10.6625 5.14023 10.5556 4.76373 10.5556 4.37944C10.5556 3.99516 10.6625 3.61866 10.8639 3.29319C11.0032 3.06029 11.1866 2.85771 11.4036 2.69715C11.6205 2.53658 11.8667 2.42121 12.1278 2.35771C12.389 2.2942 12.6599 2.28382 12.9251 2.32716C13.1902 2.37049 13.4442 2.46669 13.6725 2.6102C13.9008 2.7537 14.0987 2.94167 14.255 3.16324C14.4112 3.38481 14.5227 3.63559 14.5828 3.90109C14.643 4.1666 14.6507 4.44157 14.6055 4.71012C14.5604 4.97866 14.4632 5.23547 14.3196 5.4657Z" fill="#232330"/>
</svg>
