<svg width="59" height="59" viewBox="0 0 59 59" fill="none" xmlns="http://www.w3.org/2000/svg">
<g clip-path="url(#clip0_335_2545)">
<path d="M25.3466 15.4086C28.4043 14.5086 31.6716 14.6276 34.6558 15.7474C37.64 16.8673 40.1791 18.9274 41.8902 21.6169C43.6013 24.3064 44.3916 27.4795 44.1417 30.6576C43.8919 33.8356 42.6156 36.8462 40.5053 39.2353C38.395 41.6243 35.5652 43.2622 32.4427 43.9019C29.3202 44.5416 26.0744 44.1484 23.1949 42.7816C20.3155 41.4148 17.9585 39.1485 16.4795 36.3246C15.0005 33.5008 14.4797 30.2724 14.9958 27.1267C15.0099 27.0355 15.0422 26.9481 15.0906 26.8696C15.139 26.7911 15.2026 26.7231 15.2777 26.6695C15.3903 26.5881 15.5246 26.542 15.6635 26.5372C15.8024 26.5323 15.9396 26.5688 16.0576 26.6421C16.1757 26.7155 16.2693 26.8222 16.3265 26.9489C16.3837 27.0755 16.402 27.2164 16.379 27.3534C15.8417 30.6174 16.5393 33.9645 18.3357 36.742C20.1321 39.5194 22.8986 41.528 26.0954 42.3759C29.2923 43.2239 32.6903 42.8504 35.6267 41.3283C38.5632 39.8063 40.8275 37.2448 41.978 34.1434C43.1285 31.0421 43.0827 27.6233 41.8495 24.554C40.6164 21.4846 38.2843 18.9847 35.3081 17.5418C32.3319 16.099 28.9251 15.8167 25.7521 16.75C22.5791 17.6833 19.8675 19.7653 18.1461 22.5899C18.0488 22.749 17.8922 22.8629 17.7109 22.9066C17.5295 22.9502 17.3383 22.92 17.1792 22.8227C17.0201 22.7253 16.9062 22.5687 16.8626 22.3873C16.8189 22.206 16.8491 22.0147 16.9465 21.8556C18.8439 18.7341 21.839 16.4343 25.3442 15.4074L25.3466 15.4086Z" fill="#6EE9D1"/>
<path d="M30.2653 7.82291C34.3671 7.97049 38.3431 9.27777 41.7323 11.5932C45.1216 13.9087 47.7853 17.1374 49.4147 20.9052C49.4888 21.0764 49.4919 21.2701 49.4233 21.4436C49.3547 21.6171 49.2199 21.7562 49.0488 21.8303C48.8776 21.9045 48.684 21.9076 48.5105 21.839C48.337 21.7703 48.1979 21.6356 48.1238 21.4644C46.0705 16.7179 42.2814 12.9354 37.5318 10.8908C32.7822 8.84614 27.431 8.69382 22.5728 10.465C17.7146 12.2361 13.7167 15.7969 11.3967 20.4189C9.07677 25.0409 8.61021 30.3748 10.0925 35.3295C11.5747 40.2842 14.8937 44.4853 19.3706 47.0732C23.8475 49.6612 29.1439 50.4406 34.1763 49.2519C39.2088 48.0632 43.5969 44.9962 46.4431 40.6784C49.2893 36.3607 50.3785 31.1184 49.4878 26.0239C49.4686 25.9322 49.468 25.8376 49.4861 25.7456C49.5042 25.6537 49.5406 25.5663 49.5931 25.4887C49.6457 25.4111 49.7133 25.3449 49.792 25.294C49.8707 25.2432 49.9588 25.2086 50.0511 25.1925C50.1434 25.1764 50.238 25.179 50.3293 25.2003C50.4205 25.2215 50.5066 25.2609 50.5823 25.3161C50.6581 25.3712 50.7219 25.4411 50.7701 25.5215C50.8182 25.6019 50.8497 25.6911 50.8627 25.784C51.6329 30.2023 51.0154 34.7507 49.0953 38.8037C47.1751 42.8566 44.0466 46.215 40.14 48.4169C36.2334 50.6188 31.7407 51.556 27.2798 51.0996C22.8189 50.6433 18.6089 48.8157 15.2289 45.8684C11.849 42.9211 9.46506 38.9987 8.40509 34.6409C7.34512 30.283 7.66116 25.7038 9.30976 21.5329C10.9584 17.3621 13.8585 13.8045 17.6113 11.3496C21.3641 8.89476 25.7852 7.66311 30.2665 7.82411L30.2653 7.82291Z" fill="#6EE9D1"/>
<path d="M34.8839 1.31329C45.5298 3.35309 54.5227 11.3719 57.3251 22.4972C61.0621 37.3302 52.4904 52.5027 37.8603 56.9591C37.772 56.9865 37.6793 56.9961 37.5873 56.9875C37.4953 56.979 37.406 56.9523 37.3243 56.909C37.2427 56.8657 37.1705 56.8067 37.1117 56.7354C37.053 56.6641 37.0089 56.5819 36.9821 56.4935C36.9544 56.4053 36.9444 56.3124 36.9529 56.2203C36.9613 56.1282 36.988 56.0387 37.0313 55.957C37.0746 55.8753 37.1337 55.803 37.2051 55.7443C37.2766 55.6857 37.359 55.6418 37.4476 55.6152C44.1407 53.5665 49.7896 49.0214 53.224 42.9213C56.6585 36.8212 57.6154 29.6336 55.8966 22.8472C54.1778 16.0608 49.915 10.1957 43.991 6.46662C38.0671 2.73757 30.936 1.43037 24.0749 2.81577C17.2137 4.20116 11.1482 8.17301 7.13477 13.9086C3.1213 19.6442 1.46738 26.7041 2.51559 33.6259C3.5638 40.5477 7.23382 46.801 12.7655 51.0907C18.2971 55.3803 25.2665 57.3776 32.2302 56.6687C32.4069 56.6609 32.5799 56.7208 32.7141 56.8361C32.8483 56.9514 32.9335 57.1135 32.9524 57.2894C32.9714 57.4653 32.9226 57.6418 32.8161 57.7831C32.7096 57.9243 32.5532 58.0197 32.3789 58.0498C17.1609 59.5808 3.39578 48.8934 1.12478 33.7653C-1.14621 18.6372 8.86514 4.37059 23.8612 1.36248C27.4976 0.629455 31.2419 0.61193 34.8851 1.31089L34.8839 1.31329Z" fill="#6EE9D1"/>
<path d="M25.3679 35.3607C26.3265 35.3595 27.2455 34.9779 27.9232 34.2998C28.601 33.6218 28.9821 32.7025 28.9831 31.7437C28.9831 31.6066 29.0375 31.475 29.1345 31.3781C29.2314 31.2811 29.3629 31.2266 29.5001 31.2266C29.6372 31.2266 29.7687 31.2811 29.8656 31.3781C29.9626 31.475 30.017 31.6066 30.017 31.7437C30.0158 32.9765 29.5255 34.1585 28.6539 35.0303C27.7823 35.9021 26.6005 36.3924 25.3679 36.3937C25.2979 36.397 25.2281 36.3862 25.1625 36.3617C25.0969 36.3373 25.037 36.2998 24.9863 36.2515C24.9356 36.2032 24.8953 36.1452 24.8678 36.0808C24.8402 36.0165 24.826 35.9472 24.826 35.8772C24.826 35.8072 24.8402 35.7379 24.8678 35.6736C24.8953 35.6092 24.9356 35.5512 24.9863 35.5029C25.037 35.4546 25.0969 35.4171 25.1625 35.3927C25.2281 35.3682 25.2979 35.3574 25.3679 35.3607Z" fill="#5D8B82"/>
<path d="M29.4999 25.0256C31.2811 25.0275 32.9888 25.7361 34.2483 26.9958C35.5078 28.2555 36.2162 29.9635 36.2181 31.745C36.2181 31.8821 36.1637 32.0137 36.0667 32.1107C35.9697 32.2076 35.8382 32.2621 35.7011 32.2621C35.5639 32.2621 35.4324 32.2076 35.3355 32.1107C35.2385 32.0137 35.184 31.8821 35.184 31.745C35.1623 30.2517 34.554 28.8269 33.4905 27.7785C32.427 26.7302 30.9937 26.1425 29.5005 26.1425C28.0073 26.1425 26.5741 26.7302 25.5106 27.7785C24.447 28.8269 23.8387 30.2517 23.817 31.745C23.8282 32.1488 23.9965 32.5323 24.2861 32.814C24.5757 33.0957 24.9637 33.2533 25.3676 33.2533C25.7715 33.2533 26.1595 33.0957 26.4491 32.814C26.7387 32.5323 26.907 32.1488 26.9182 31.745C26.9182 31.0598 27.1903 30.4027 27.6747 29.9183C28.1591 29.4338 28.8161 29.1616 29.5011 29.1616C30.1861 29.1616 30.8431 29.4338 31.3275 29.9183C31.8119 30.4027 32.084 31.0598 32.084 31.745C32.0832 33.0655 31.6939 34.3566 30.9645 35.4574C30.2351 36.5581 29.198 37.4199 27.9823 37.9352C27.9193 37.965 27.8509 37.9818 27.7813 37.9846C27.7116 37.9873 27.6421 37.976 27.5769 37.9512C27.5118 37.9264 27.4523 37.8886 27.4021 37.8402C27.3519 37.7919 27.312 37.7338 27.2848 37.6696C27.2576 37.6054 27.2436 37.5364 27.2438 37.4666C27.244 37.3969 27.2582 37.3279 27.2857 37.2638C27.3132 37.1997 27.3534 37.1419 27.4039 37.0938C27.4543 37.0456 27.5139 37.0082 27.5792 36.9837C28.6093 36.5492 29.4882 35.8204 30.1058 34.8885C30.7234 33.9566 31.0523 32.863 31.0511 31.745C31.0511 31.3338 30.8878 30.9395 30.5971 30.6488C30.3064 30.3581 29.9122 30.1947 29.5011 30.1947C29.09 30.1947 28.6958 30.3581 28.4051 30.6488C28.1144 30.9395 27.9511 31.3338 27.9511 31.745C27.9585 32.089 27.8972 32.431 27.7707 32.751C27.6442 33.071 27.4551 33.3625 27.2144 33.6084C26.9738 33.8543 26.6865 34.0497 26.3694 34.1831C26.0522 34.3165 25.7116 34.3852 25.3676 34.3852C25.0236 34.3852 24.683 34.3165 24.3659 34.1831C24.0487 34.0497 23.7614 33.8543 23.5208 33.6084C23.2801 33.3625 23.091 33.071 22.9645 32.751C22.838 32.431 22.7767 32.089 22.7841 31.745C22.786 29.9635 23.4944 28.2555 24.7539 26.9958C26.0134 25.7361 27.7211 25.0275 29.5023 25.0256H29.4999Z" fill="#6EE9D1"/>
<path d="M33.117 31.7438C33.117 30.7843 32.7359 29.8641 32.0576 29.1857C31.3793 28.5073 30.4593 28.1261 29.5 28.1261C28.5407 28.1261 27.6206 28.5073 26.9423 29.1857C26.264 29.8641 25.8829 30.7843 25.8829 31.7438C25.8863 31.8137 25.8754 31.8836 25.851 31.9492C25.8266 32.0148 25.7891 32.0748 25.7408 32.1254C25.6925 32.1761 25.6344 32.2165 25.5701 32.244C25.5057 32.2716 25.4364 32.2858 25.3665 32.2858C25.2965 32.2858 25.2272 32.2716 25.1628 32.244C25.0985 32.2165 25.0404 32.1761 24.9921 32.1254C24.9438 32.0748 24.9063 32.0148 24.8819 31.9492C24.8575 31.8836 24.8466 31.8137 24.85 31.7438C24.85 30.5103 25.3399 29.3274 26.2119 28.4552C27.084 27.583 28.2667 27.093 29.5 27.093C30.7332 27.093 31.9159 27.583 32.788 28.4552C33.66 29.3274 34.1499 30.5103 34.1499 31.7438C34.1531 32.8978 33.9274 34.0411 33.4859 35.1073C33.0444 36.1736 32.3959 37.1417 31.5778 37.9556C31.53 38.0043 31.473 38.0432 31.4101 38.0698C31.3472 38.0964 31.2796 38.1103 31.2113 38.1107C31.143 38.1111 31.0753 38.0979 31.0122 38.072C30.949 38.046 30.8916 38.0078 30.8432 37.9595C30.7949 37.9113 30.7566 37.8539 30.7305 37.7908C30.7045 37.7276 30.6912 37.6599 30.6915 37.5916C30.6917 37.5233 30.7055 37.4557 30.732 37.3928C30.7586 37.3298 30.7973 37.2727 30.846 37.2248C31.5683 36.507 32.141 35.6528 32.5308 34.712C32.9207 33.7711 33.1199 32.7622 33.117 31.7438Z" fill="#5D8B82"/>
<path d="M21.4069 28.3241C22.0801 26.7341 23.2067 25.3775 24.646 24.4239C26.0853 23.4702 27.7735 22.9617 29.4999 22.9617C31.2264 22.9617 32.9146 23.4702 34.3539 24.4239C35.7932 25.3775 36.9197 26.7341 37.593 28.3241C37.6229 28.3871 37.6397 28.4555 37.6424 28.5252C37.6452 28.5949 37.6338 28.6644 37.609 28.7296C37.5842 28.7947 37.5465 28.8542 37.4981 28.9044C37.4497 28.9546 37.3917 28.9945 37.3275 29.0218C37.2633 29.049 37.1943 29.0629 37.1245 29.0627C37.0548 29.0626 36.9858 29.0483 36.9218 29.0208C36.8577 28.9933 36.7999 28.9531 36.7517 28.9026C36.7036 28.8522 36.6661 28.7925 36.6417 28.7273C36.0475 27.3242 35.0533 26.1272 33.7832 25.2858C32.5131 24.4443 31.0234 23.9955 29.4999 23.9955C27.9765 23.9955 26.4867 24.4443 25.2167 25.2858C23.9466 26.1272 22.9524 27.3242 22.3582 28.7273C22.3187 28.8217 22.252 28.9023 22.1665 28.9587C22.081 29.0151 21.9807 29.0448 21.8783 29.044C21.8094 29.0441 21.7411 29.0298 21.678 29.002C21.6155 28.9757 21.5588 28.9373 21.5111 28.889C21.4635 28.8407 21.4258 28.7835 21.4003 28.7206C21.3748 28.6578 21.3619 28.5905 21.3624 28.5227C21.3629 28.4548 21.3768 28.3878 21.4033 28.3253L21.4069 28.3241Z" fill="#5D8B82"/>
<path d="M36.4413 24.8013C35.5298 23.8895 34.4476 23.1662 33.2566 22.6727C32.0656 22.1792 30.7891 21.9252 29.4999 21.9252C28.2108 21.9252 26.9342 22.1792 25.7432 22.6727C24.5522 23.1662 23.4701 23.8895 22.5586 24.8013C22.4604 24.8916 22.3311 24.9405 22.1977 24.9377C22.0643 24.935 21.9372 24.8807 21.8428 24.7864C21.7485 24.692 21.6943 24.5649 21.6915 24.4314C21.6887 24.298 21.7376 24.1687 21.8279 24.0705C23.8627 22.0355 26.6224 20.8922 29.4999 20.8922C32.3775 20.8922 35.1371 22.0355 37.1719 24.0705C37.2622 24.1687 37.3111 24.298 37.3084 24.4314C37.3056 24.5649 37.2514 24.692 37.157 24.7864C37.0627 24.8807 36.9355 24.935 36.8021 24.9377C36.6688 24.9405 36.5395 24.8916 36.4413 24.8013Z" fill="#6EE9D1"/>
</g>
<defs>
<clipPath id="clip0_335_2545">
<rect width="57.4" height="57.4" fill="white" transform="matrix(-1 0 0 1 58.2 0.799988)"/>
</clipPath>
</defs>
</svg>
