<svg width="19" height="20" viewBox="0 0 19 20" fill="none" xmlns="http://www.w3.org/2000/svg">
<path d="M4.92849 15.9967C5.98838 15.9953 7.00444 15.5735 7.75377 14.8238C8.5031 14.0741 8.92452 13.0577 8.92557 11.9976C8.92557 11.846 8.98579 11.7006 9.09298 11.5934C9.20017 11.4862 9.34555 11.4259 9.49715 11.4259C9.64874 11.4259 9.79412 11.4862 9.90132 11.5934C10.0085 11.7006 10.0687 11.846 10.0687 11.9976C10.0673 13.3607 9.52531 14.6676 8.56164 15.6314C7.59796 16.5952 6.29133 17.1373 4.92849 17.1387C4.8512 17.1425 4.77396 17.1305 4.70145 17.1035C4.62894 17.0764 4.56267 17.035 4.50665 16.9816C4.45063 16.9282 4.40604 16.864 4.37557 16.7928C4.3451 16.7217 4.32939 16.6451 4.32939 16.5677C4.32939 16.4903 4.3451 16.4138 4.37557 16.3426C4.40604 16.2715 4.45063 16.2073 4.50665 16.1539C4.56267 16.1005 4.62894 16.059 4.70145 16.032C4.77396 16.005 4.8512 15.993 4.92849 15.9967Z" fill="#999999"/>
<path d="M9.49704 4.57014C11.4664 4.57225 13.3544 5.35563 14.747 6.74839C16.1395 8.14116 16.9228 10.0295 16.9249 11.9992C16.9249 12.1508 16.8646 12.2963 16.7574 12.4035C16.6502 12.5107 16.5048 12.571 16.3532 12.571C16.2016 12.571 16.0562 12.5107 15.949 12.4035C15.8417 12.2963 15.7815 12.1508 15.7815 11.9992C15.7575 10.3482 15.0849 8.77288 13.9091 7.61382C12.7333 6.45475 11.1486 5.805 9.4977 5.805C7.84677 5.805 6.26214 6.45475 5.08631 7.61382C3.91047 8.77288 3.23788 10.3482 3.2139 11.9992C3.22632 12.4457 3.41238 12.8697 3.73254 13.1812C4.05269 13.4926 4.48167 13.6668 4.92827 13.6668C5.37486 13.6668 5.80385 13.4926 6.124 13.1812C6.44415 12.8697 6.63022 12.4457 6.64264 11.9992C6.64264 11.2417 6.9435 10.5152 7.47906 9.97956C8.01461 9.44392 8.74098 9.14299 9.49837 9.14299C10.2558 9.14299 10.9821 9.44392 11.5177 9.97956C12.0532 10.5152 12.3541 11.2417 12.3541 11.9992C12.3532 13.4592 11.9227 14.8867 11.1163 16.1037C10.3099 17.3207 9.1632 18.2735 7.81915 18.8432C7.74949 18.8762 7.67388 18.8948 7.59685 18.8979C7.51982 18.9009 7.44298 18.8883 7.37094 18.8609C7.29889 18.8335 7.23314 18.7918 7.17763 18.7383C7.12212 18.6848 7.078 18.6206 7.04793 18.5496C7.01786 18.4786 7.00245 18.4023 7.00263 18.3252C7.00281 18.2481 7.01858 18.1718 7.049 18.101C7.07941 18.0301 7.12383 17.9662 7.17959 17.9129C7.23536 17.8597 7.3013 17.8183 7.37348 17.7912C8.51231 17.3109 9.48406 16.5051 10.1669 15.4747C10.8498 14.4444 11.2133 13.2353 11.2121 11.9992C11.2121 11.5446 11.0315 11.1087 10.7101 10.7872C10.3888 10.4658 9.95287 10.2852 9.49837 10.2852C9.04387 10.2852 8.60798 10.4658 8.28659 10.7872C7.96521 11.1087 7.78466 11.5446 7.78466 11.9992C7.79286 12.3795 7.72503 12.7577 7.58517 13.1115C7.4453 13.4653 7.23621 13.7876 6.97016 14.0595C6.70411 14.3314 6.38645 14.5474 6.03582 14.6949C5.68519 14.8423 5.30864 14.9183 4.92827 14.9183C4.54789 14.9183 4.17135 14.8423 3.82071 14.6949C3.47008 14.5474 3.15242 14.3314 2.88637 14.0595C2.62032 13.7876 2.41123 13.4653 2.27136 13.1115C2.1315 12.7577 2.06367 12.3795 2.07187 11.9992C2.07397 10.0295 2.85723 8.14116 4.24976 6.74839C5.64229 5.35563 7.53036 4.57225 9.49969 4.57014H9.49704Z" fill="#999999"/>
<path d="M13.4962 11.9978C13.4962 10.937 13.0748 9.91963 12.3249 9.16953C11.5749 8.41943 10.5577 7.99802 9.49709 7.99802C8.43647 7.99802 7.41928 8.41943 6.66931 9.16953C5.91933 9.91963 5.498 10.937 5.498 11.9978C5.50173 12.0751 5.48972 12.1524 5.46271 12.2249C5.43569 12.2974 5.39423 12.3637 5.34084 12.4198C5.28745 12.4758 5.22324 12.5204 5.1521 12.5509C5.08096 12.5814 5.00438 12.5971 4.92699 12.5971C4.8496 12.5971 4.77301 12.5814 4.70187 12.5509C4.63073 12.5204 4.56652 12.4758 4.51313 12.4198C4.45974 12.3637 4.41828 12.2974 4.39127 12.2249C4.36425 12.1524 4.35225 12.0751 4.35597 11.9978C4.35597 10.634 4.89762 9.32616 5.86177 8.36185C6.82592 7.39755 8.13358 6.8558 9.49709 6.8558C10.8606 6.8558 12.1683 7.39755 13.1324 8.36185C14.0966 9.32616 14.6382 10.634 14.6382 11.9978C14.6417 13.2737 14.3922 14.5377 13.9041 15.7166C13.4159 16.8955 12.6989 17.9658 11.7944 18.8657C11.7416 18.9196 11.6785 18.9626 11.609 18.992C11.5394 19.0214 11.4648 19.0368 11.3892 19.0372C11.3137 19.0376 11.2389 19.0231 11.169 18.9944C11.0992 18.9657 11.0357 18.9235 10.9822 18.8701C10.9288 18.8167 10.8865 18.7533 10.8577 18.6835C10.8289 18.6137 10.8142 18.5388 10.8145 18.4633C10.8148 18.3878 10.83 18.313 10.8593 18.2434C10.8886 18.1738 10.9315 18.1107 10.9853 18.0578C11.7839 17.2641 12.4171 16.3197 12.8481 15.2795C13.2791 14.2393 13.4994 13.1238 13.4962 11.9978Z" fill="#999999"/>
<path d="M0.549162 8.21685C1.29353 6.45886 2.5391 4.95908 4.13039 3.9047C5.72169 2.85031 7.58822 2.28803 9.49704 2.28803C11.4059 2.28803 13.2724 2.85031 14.8637 3.9047C16.455 4.95908 17.7005 6.45886 18.4449 8.21685C18.4779 8.28652 18.4965 8.36214 18.4996 8.43918C18.5026 8.51622 18.49 8.59308 18.4626 8.66514C18.4352 8.73719 18.3935 8.80295 18.34 8.85847C18.2865 8.91399 18.2223 8.95812 18.1514 8.98819C18.0804 9.01827 18.004 9.03369 17.927 9.0335C17.8499 9.03332 17.7736 9.01754 17.7028 8.98713C17.632 8.95671 17.568 8.91228 17.5148 8.85651C17.4616 8.80074 17.4202 8.73477 17.3931 8.66259C16.7361 7.11135 15.637 5.78796 14.2327 4.8576C12.8285 3.92723 11.1814 3.43109 9.49704 3.43109C7.81266 3.43109 6.16557 3.92723 4.76135 4.8576C3.35712 5.78796 2.25795 7.11135 1.601 8.66259C1.55729 8.76704 1.48351 8.85612 1.38902 8.91849C1.29454 8.98086 1.18364 9.01369 1.07043 9.01282C0.994177 9.01289 0.918737 8.99708 0.848925 8.96639C0.779812 8.93727 0.717119 8.8948 0.664436 8.84142C0.611753 8.78803 0.570114 8.72478 0.541901 8.65529C0.513687 8.58579 0.499454 8.51141 0.500017 8.4364C0.50058 8.3614 0.51593 8.28724 0.545183 8.21817L0.549162 8.21685Z" fill="#999999"/>
<path d="M17.1716 4.32193C16.1638 3.31382 14.9674 2.51414 13.6506 1.96855C12.3337 1.42296 10.9224 1.14215 9.49706 1.14215C8.07174 1.14215 6.66037 1.42296 5.34356 1.96855C4.02676 2.51414 2.8303 3.31382 1.82253 4.32193C1.71398 4.42182 1.57103 4.47589 1.42355 4.47283C1.27608 4.46976 1.13549 4.4098 1.03119 4.30548C0.926886 4.20116 0.866936 4.06056 0.863873 3.91306C0.860807 3.76556 0.914865 3.62258 1.01475 3.51402C3.26441 1.26403 6.31559 0 9.49706 0C12.6785 0 15.7297 1.26403 17.9794 3.51402C18.0793 3.62258 18.1333 3.76556 18.1302 3.91306C18.1272 4.06056 18.0672 4.20116 17.9629 4.30548C17.8586 4.4098 17.718 4.46976 17.5706 4.47283C17.4231 4.47589 17.2801 4.42182 17.1716 4.32193Z" fill="#999999"/>
</svg>
