<svg width="18" height="18" viewBox="0 0 18 18" fill="none" xmlns="http://www.w3.org/2000/svg">
<path d="M17.9975 3.59924C18.0306 4.56965 17.7417 5.61616 16.9712 6.38805L15.1162 8.23859C14.3494 9.0048 13.3071 9.29503 12.3361 9.26431C11.6416 9.24209 10.9652 9.06767 10.3913 8.72687C8.94709 10.2101 7.56342 11.553 6.11356 13.0023C5.82661 13.326 5.26265 13.3421 4.95537 13.0349C4.6481 12.7276 4.67174 12.1623 4.9965 11.8778L6.39483 10.48C6.14212 10.3887 5.87711 10.3358 5.60868 10.3231C4.99036 10.3018 4.39046 10.4909 3.99526 10.8856L2.1417 12.738C1.74697 13.1322 1.56591 13.7307 1.58766 14.3503C1.60941 14.97 1.85711 15.5632 2.1417 15.8473C2.42628 16.1314 3.03043 16.389 3.64781 16.4098C4.26519 16.4306 4.86556 16.2425 5.26123 15.8473L7.1148 13.9949C7.49298 13.6167 7.67593 13.0443 7.66883 12.4487C7.66032 12.0304 8.03662 11.6452 8.45498 11.6386C8.87334 11.632 9.25862 12.0139 9.25862 12.4317C9.26949 13.3728 8.97498 14.3763 8.2328 15.1194L6.38018 16.9718C5.6101 17.7413 4.57105 18.0302 3.60006 17.9975C2.62908 17.9649 1.69071 17.635 1.02889 16.9718C0.367075 16.3087 0.0361651 15.3704 0.00260147 14.4C-0.0309622 13.4296 0.257402 12.3835 1.02889 11.6112L2.88199 9.75873C3.65301 8.98873 4.69916 8.69993 5.67108 8.73349C6.36552 8.75712 7.03727 8.93012 7.60927 9.27092C9.04353 7.78009 10.4395 6.44855 11.8875 4.99506C12.0036 4.8759 12.1543 4.79624 12.3181 4.76731C12.482 4.73838 12.6508 4.76165 12.8008 4.83384C12.9507 4.90603 13.0742 5.02349 13.1537 5.16963C13.2333 5.31577 13.2649 5.48321 13.2442 5.64831C13.2199 5.82849 13.1353 5.99513 13.004 6.12099L11.5977 7.52673C11.8537 7.61549 12.1215 7.66567 12.3923 7.67563C13.0126 7.69548 13.6172 7.50121 14.0058 7.11314L15.8593 5.26969C16.2536 4.87547 16.4346 4.27706 16.4134 3.65738C16.3921 3.03769 16.1448 2.4459 15.8593 2.1604C15.562 1.86308 14.9611 1.60925 14.3466 1.58987C13.732 1.5705 13.1388 1.76335 12.7393 2.1604L10.8857 4.00385C10.4972 4.39192 10.3152 4.94921 10.3232 5.54999C10.3312 5.96831 9.95589 6.35354 9.53705 6.35969C9.11822 6.36583 8.73342 5.98485 8.73342 5.56653C8.72065 4.62448 9.02367 3.62854 9.76775 2.88738L11.618 1.03589C12.3862 0.268734 13.4271 -0.0285795 14.3981 0.00214402C15.3691 0.0328675 16.3037 0.368942 16.9712 1.03589C17.6387 1.70284 17.9639 2.62883 17.9975 3.59924Z" fill="#232330"/>
</svg>
