<svg width="15" height="14" viewBox="0 0 15 14" fill="none" xmlns="http://www.w3.org/2000/svg">
<g clip-path="url(#clip0_408_2625)">
<path d="M11.488 -0.00762939H11.849C12.0011 0.0720747 12.1395 0.172773 12.2593 0.291057L12.8009 0.78121C12.8009 0.819503 12.8009 0.842476 12.8748 0.850135C12.9715 0.963424 13.0816 1.06619 13.203 1.15649C13.2077 1.17181 13.2161 1.18594 13.2275 1.19787C13.2388 1.20979 13.2529 1.21921 13.2686 1.22541C13.3697 1.33504 13.4794 1.43743 13.5969 1.53175C13.6035 1.54645 13.6136 1.55958 13.6264 1.57018C13.6391 1.58078 13.6543 1.58858 13.6707 1.59302C13.7674 1.70631 13.8776 1.80908 13.9989 1.89938C14.0039 1.91581 14.0133 1.93078 14.0262 1.94285C14.0391 1.95492 14.0552 1.96369 14.0728 1.9683C14.1673 2.0834 14.2777 2.1864 14.401 2.27464C14.405 2.28945 14.4132 2.30297 14.4247 2.31376C14.4363 2.32455 14.4508 2.33221 14.4667 2.33591L14.7867 2.64992C14.8768 2.73308 14.9388 2.83906 14.965 2.95475C14.9913 3.07045 14.9806 3.1908 14.9344 3.30091C14.874 3.44023 14.7783 3.56376 14.6554 3.66086L6.023 11.7484C5.97377 11.7943 5.93274 11.8633 5.85068 11.8709L5.76862 11.7943C5.69108 11.699 5.59998 11.614 5.49784 11.5416C5.4701 11.4926 5.42721 11.4526 5.37475 11.4267C5.2945 11.3288 5.20069 11.2412 5.09576 11.1663C5.06327 11.1208 5.02144 11.0818 4.97267 11.0515C4.89242 10.9535 4.79861 10.866 4.69368 10.7911C4.66674 10.7441 4.62715 10.7045 4.5788 10.6762C4.49408 10.5843 4.4007 10.4997 4.29981 10.4234C4.27207 10.3745 4.22918 10.3344 4.17672 10.3086C4.09647 10.2106 4.00266 10.1231 3.89773 10.0482C3.86999 9.99921 3.8271 9.95918 3.77464 9.9333C3.69504 9.83737 3.60421 9.75003 3.50386 9.67291C3.47351 9.62778 3.43109 9.59082 3.38077 9.56567C3.30052 9.46774 3.2067 9.38018 3.10178 9.30528C3.07404 9.25632 3.03115 9.21629 2.97869 9.19041C2.89844 9.09248 2.80463 9.0049 2.6997 8.93001C2.67196 8.88104 2.62907 8.84102 2.57661 8.81513C2.529 8.75797 2.47689 8.70421 2.4207 8.65429C2.24839 8.54707 2.28941 8.47049 2.4207 8.34795C3.97432 6.90813 5.52245 5.46574 7.06512 4.02081L11.2418 0.130221L11.488 -0.00762939Z" fill="#232330"/>
<path d="M4.92343 12.6215C4.95116 12.6704 4.99406 12.7105 5.04652 12.7364C5.04652 12.7747 5.15319 12.8206 5.04652 12.8436L4.79214 12.9202C4.69586 12.9242 4.60122 12.9449 4.51314 12.9814C4.23477 13.0255 3.96043 13.0895 3.69258 13.1729C3.59484 13.1797 3.49838 13.1977 3.40538 13.2265L2.65866 13.4103C2.56203 13.4177 2.46757 13.4411 2.37967 13.4792C2.1012 13.5194 1.82675 13.5809 1.5591 13.6631C1.46185 13.6669 1.36667 13.6905 1.2801 13.732C1.00192 13.7735 0.727583 13.8349 0.459536 13.9158C0.367777 13.9263 0.27717 13.9442 0.188747 13.9694C-0.0246013 14.0154 -0.0246019 14.0154 0.0246322 13.8239C0.0285277 13.7703 0.0285277 13.7166 0.0246322 13.6631C0.0638479 13.5949 0.0836266 13.5184 0.0820718 13.441L0.287214 12.6751C0.325352 12.5953 0.347599 12.5096 0.352861 12.4224C0.439526 12.1722 0.505366 11.9161 0.549796 11.6565C0.595332 11.5761 0.620591 11.487 0.623647 11.3961L0.828789 10.6303C0.861512 10.5602 0.878279 10.4846 0.878024 10.4081L1.08317 9.64228C1.12519 9.56374 1.14763 9.47732 1.14881 9.38953L1.19805 9.25168C1.19805 9.19042 1.25549 9.19807 1.29652 9.25168C1.40699 9.37776 1.53068 9.49323 1.66577 9.59633C1.6935 9.6453 1.7364 9.68532 1.78886 9.71121C1.86911 9.80914 1.96292 9.8967 2.06785 9.9716C2.09304 10.0178 2.13325 10.0553 2.18273 10.0788C2.26298 10.1768 2.3568 10.2643 2.46172 10.3392C2.49183 10.3865 2.53415 10.426 2.58481 10.4541C2.66506 10.552 2.75888 10.6396 2.8638 10.7145C2.89074 10.7615 2.93034 10.801 2.97868 10.8294C3.06127 10.9231 3.15485 11.0079 3.25768 11.0821C3.28541 11.1311 3.3283 11.1711 3.38076 11.197C3.46101 11.2949 3.55483 11.3825 3.65975 11.4574C3.68749 11.5063 3.73038 11.5464 3.78284 11.5723C3.86309 11.6702 3.95691 11.7577 4.06183 11.8326C4.08702 11.8788 4.12724 11.9164 4.17671 11.9399C4.25696 12.0378 4.35078 12.1254 4.45571 12.2003C4.48344 12.2492 4.52633 12.2893 4.57879 12.3151C4.67539 12.4338 4.79174 12.5372 4.92343 12.6215Z" fill="#232330"/>
</g>
<defs>
<clipPath id="clip0_408_2625">
<rect width="15" height="14" fill="white"/>
</clipPath>
</defs>
</svg>
