<svg width="25" height="23" viewBox="0 0 25 23" fill="none" xmlns="http://www.w3.org/2000/svg">
<path d="M9.17636 13.6116C8.86344 13.8725 8.83345 14.4022 9.11377 14.6994C9.39409 14.9965 9.92758 14.9897 10.2042 14.6922C10.2042 14.6922 11.5655 13.4418 11.5695 13.4566C11.5695 13.4566 15.461 9.72976 16.8654 8.40637C16.9807 8.30044 17.0598 8.161 17.0914 8.00775C17.1231 7.8545 17.1058 7.69517 17.0419 7.55228C16.9781 7.40939 16.8709 7.29014 16.7355 7.21138C16.6002 7.13261 16.4435 7.09832 16.2876 7.11333C16.1174 7.13112 15.9583 7.206 15.8363 7.32576L9.17636 13.6116Z" fill="black"/>
<path d="M9.29918 19.4166C9.31316 19.3936 9.32666 19.3714 9.34022 19.347C9.36006 19.3122 9.37897 19.2774 9.3979 19.2421L9.42079 19.1968C9.44322 19.1516 9.46474 19.1062 9.48533 19.0609C9.48548 19.0559 9.48977 19.0505 9.49221 19.0455C9.71766 18.5329 9.83107 17.978 9.82486 17.418C9.82572 17.3882 9.81689 17.3589 9.79971 17.3346C9.71738 17.0056 9.40747 16.7334 9.06416 16.7272C8.65797 16.7196 8.28235 17.0849 8.27887 17.4914C8.27624 17.784 8.22121 18.0738 8.11639 18.347L8.11403 18.3493C8.02032 18.5873 7.87661 18.8025 7.69261 18.9802L5.84249 20.7274C5.44876 21.0996 4.86281 21.2586 4.26188 21.2205C3.89594 21.1966 3.53905 21.0964 3.2142 20.9261C3.06929 20.8511 2.93673 20.7544 2.82114 20.6392C2.71272 20.5167 2.62379 20.3782 2.55748 20.2287C2.40678 19.8953 2.32743 19.5341 2.32453 19.1682C2.32077 18.5673 2.5138 17.9895 2.90752 17.6178L4.75854 15.871C4.94658 15.6977 5.16959 15.5668 5.41253 15.4871L5.41259 15.4848C5.69108 15.3954 5.98341 15.3572 6.2755 15.3719C6.68132 15.3919 7.0658 15.0378 7.08396 14.6318C7.09764 14.2854 6.83897 13.9564 6.50931 13.8591C6.48952 13.8418 6.46473 13.8313 6.43855 13.8291C5.87922 13.7906 5.31812 13.8719 4.79273 14.0677L4.77649 14.0737C4.73005 14.0916 4.68358 14.1105 4.63709 14.1303L4.59058 14.1505C4.55429 14.1669 4.51797 14.1842 4.4821 14.202C4.45834 14.2138 4.43547 14.2264 4.41077 14.239C4.39772 14.2455 4.38512 14.2525 4.37252 14.2595C4.12667 14.3922 3.89917 14.5564 3.69577 14.748L1.84969 16.4985C1.08118 17.2223 0.771681 18.2235 0.776118 19.1667C0.780555 20.1098 1.07447 21.0311 1.69959 21.6941C2.32338 22.3552 3.22671 22.7028 4.16822 22.7617C5.10974 22.8206 6.12633 22.5698 6.89534 21.8442L8.74637 20.0974C8.94916 19.9054 9.12604 19.6877 9.27251 19.4498L9.29918 19.4166Z" fill="black"/>
<path d="M15.7817 3.40488C15.7669 3.42762 15.7526 3.45038 15.7382 3.47313C15.7168 3.50726 15.6966 3.5419 15.6765 3.57699L15.6519 3.62262C15.6278 3.66826 15.6038 3.71066 15.5825 3.75499C15.5797 3.76002 15.5771 3.76521 15.5748 3.77052C15.33 4.27783 15.1945 4.83237 15.1774 5.397C15.1756 5.42689 15.183 5.4566 15.1987 5.48195C15.2651 5.81702 15.5615 6.10453 15.9017 6.12547C16.3042 6.15054 16.692 5.79847 16.7129 5.38901C16.7286 5.09414 16.7962 4.80448 16.9126 4.53386L16.9149 4.53392C17.018 4.29793 17.1696 4.08711 17.3596 3.91568L19.2687 2.23371C19.675 1.87476 20.2643 1.74073 20.857 1.80466C21.2182 1.84458 21.5671 1.96104 21.8812 2.14655C22.0213 2.22763 22.1482 2.33023 22.2574 2.45072C22.3601 2.57836 22.4428 2.72142 22.5025 2.87483C22.6375 3.21736 22.7006 3.58486 22.6878 3.95377C22.6653 4.55919 22.4496 5.13355 22.0429 5.4911L20.1333 7.17212C19.9395 7.33897 19.7127 7.46152 19.4683 7.53147L19.466 7.53141C19.1861 7.60998 18.8946 7.63672 18.6054 7.61034C18.2038 7.57279 17.8059 7.91159 17.7722 8.32161C17.7439 8.67016 17.9859 9.01263 18.307 9.12477C18.3267 9.14245 18.3515 9.15309 18.3777 9.15508C18.9303 9.21801 19.4899 9.16025 20.019 8.98564L20.0351 8.98008C20.0811 8.96381 20.1272 8.94707 20.1732 8.92894L20.2193 8.91034C20.2562 8.89519 20.2927 8.87956 20.3291 8.86301C20.3531 8.85212 20.3753 8.84071 20.4016 8.82896L20.4405 8.8097C20.6898 8.68731 20.9224 8.53251 21.1326 8.34919L23.0417 6.66722C23.8364 5.96873 24.184 4.97329 24.2206 4.02215C24.2572 3.07101 24.0047 2.13052 23.4143 1.4351C22.823 0.741057 21.9422 0.352802 21.0134 0.253686C20.0846 0.15457 19.0587 0.359388 18.2672 1.05751L16.3576 2.73854C16.1484 2.92358 15.9636 3.13535 15.8078 3.36857L15.7817 3.40488Z" fill="black"/>
</svg>
