<svg width="21" height="21" viewBox="0 0 21 21" fill="none" xmlns="http://www.w3.org/2000/svg">
<path d="M21 12.3351V8.66228L18.6072 8.06685C18.4445 7.51701 18.2248 6.98567 17.9517 6.48148L19.2222 4.37068L16.6293 1.77463L14.517 3.045C14.0123 2.77359 13.4812 2.55452 12.9319 2.39123L12.336 0H8.6649L8.06984 2.39296C7.52068 2.5566 6.98958 2.77564 6.48474 3.04673L4.37329 1.77636L1.77654 4.37284L3.04704 6.48407C2.77532 6.98873 2.55581 7.5198 2.39191 8.06901L0 8.66401V12.3343L2.39364 12.9301C2.55785 13.479 2.77705 14.0098 3.04791 14.5146L1.7774 16.625L4.37372 19.2215L6.48604 17.9515C6.99057 18.2229 7.52137 18.4422 8.07027 18.6062L8.66361 21H12.3368L12.9315 18.6066C13.4807 18.4432 14.0118 18.2241 14.5166 17.9528L16.628 19.2228L19.2235 16.6302L17.953 14.519C18.2263 14.0145 18.4458 13.4827 18.6077 12.9323L21 12.3351ZM10.4989 14.3548C9.73636 14.3547 8.99095 14.1285 8.35695 13.7048C7.72295 13.2811 7.22883 12.679 6.93709 11.9745C6.64535 11.27 6.56909 10.4949 6.71794 9.74704C6.86679 8.99922 7.23408 8.31233 7.77335 7.77323C8.31262 7.23414 8.99966 6.86704 9.74759 6.71838C10.4955 6.56971 11.2707 6.64614 11.9752 6.93801C12.6797 7.22988 13.2818 7.72407 13.7054 8.3581C14.129 8.99213 14.355 9.73752 14.3549 10.5C14.3549 11.0063 14.2552 11.5076 14.0614 11.9753C13.8676 12.4431 13.5836 12.8681 13.2255 13.226C12.8674 13.584 12.4423 13.8679 11.9745 14.0616C11.5067 14.2552 11.0053 14.3549 10.4989 14.3548Z" fill="white"/>
</svg>
