<svg width="22" height="18" viewBox="0 0 22 18" fill="none" xmlns="http://www.w3.org/2000/svg">
<g clip-path="url(#clip0_335_2568)">
<path d="M17.8678 5.07446L12.0341 0.477259C11.6409 0.168379 11.1587 0.000915527 10.6627 0.000915527C10.1666 0.000915527 9.6845 0.168379 9.29126 0.477259L3.45411 5.07446L0.454113 7.43435C0.368458 7.49259 0.295447 7.5682 0.239622 7.6565C0.183797 7.74479 0.146352 7.84388 0.129617 7.94759C0.112881 8.0513 0.117213 8.15742 0.142342 8.25935C0.167472 8.36128 0.212862 8.45684 0.275688 8.54008C0.338515 8.62332 0.417435 8.69246 0.507539 8.74321C0.597643 8.79396 0.697005 8.82522 0.799443 8.83506C0.90188 8.84489 1.0052 8.83309 1.10299 8.80039C1.20077 8.76768 1.29092 8.71477 1.36783 8.64495L3.16011 7.27323V15.7014C3.16006 16.0033 3.21822 16.3022 3.33127 16.5811C3.44432 16.86 3.61005 17.1135 3.819 17.3269C4.02794 17.5404 4.276 17.7097 4.54901 17.8252C4.82202 17.9407 5.11462 18.0001 5.41011 18H15.9101C16.2056 18.0001 16.4982 17.9408 16.7713 17.8253C17.0443 17.7098 17.2924 17.5405 17.5014 17.327C17.7103 17.1136 17.876 16.8601 17.9891 16.5812C18.1021 16.3023 18.1602 16.0033 18.1601 15.7014V7.27323L19.9528 8.68304C20.1108 8.79168 20.3033 8.83486 20.4913 8.8038C20.6794 8.77274 20.8488 8.66978 20.9652 8.5158C21.0816 8.36183 21.1363 8.16837 21.1182 7.97469C21.1002 7.78101 21.0106 7.6016 20.8678 7.47288L17.8678 5.07446ZM16.6618 15.7019C16.6617 15.905 16.5827 16.0999 16.442 16.2435C16.3014 16.3872 16.1107 16.468 15.9118 16.4681H5.41183C5.21291 16.4681 5.02215 16.3873 4.8815 16.2437C4.74084 16.1 4.66183 15.9051 4.66183 15.7019V6.05563L10.2041 1.70362C10.3352 1.60027 10.4961 1.54421 10.6616 1.54421C10.8272 1.54421 10.9881 1.60027 11.1191 1.70362L16.6614 6.05563L16.6618 15.7019Z" fill="#232330"/>
</g>
<defs>
<clipPath id="clip0_335_2568">
<rect width="21" height="18" fill="white" transform="translate(0.125)"/>
</clipPath>
</defs>
</svg>
